<svg width="346" height="108" viewBox="0 0 346 108" fill="none" xmlns="http://www.w3.org/2000/svg">
<path d="M43.944 75.12H14.76L9.384 90H0.168L24.36 23.472H34.44L58.536 90H49.32L43.944 75.12ZM41.448 68.016L29.352 34.224L17.256 68.016H41.448ZM77.8155 18.96V90H69.0795V18.96H77.8155ZM86.5365 88.248C88.5685 86.616 90.1605 85.28 91.3125 84.24C92.4645 83.184 93.4325 82.088 94.2165 80.952C95.0165 79.8 95.4165 78.672 95.4165 77.568C95.4165 76.528 95.1605 75.712 94.6485 75.12C94.1525 74.512 93.3445 74.208 92.2245 74.208C91.1365 74.208 90.2885 74.552 89.6805 75.24C89.0885 75.912 88.7685 76.816 88.7205 77.952H86.6085C86.6725 76.16 87.2165 74.776 88.2405 73.8C89.2645 72.824 90.5845 72.336 92.2005 72.336C93.8485 72.336 95.1525 72.792 96.1125 73.704C97.0885 74.616 97.5765 75.872 97.5765 77.472C97.5765 78.8 97.1765 80.096 96.3765 81.36C95.5925 82.608 94.6965 83.712 93.6885 84.672C92.6805 85.616 91.3925 86.72 89.8245 87.984H98.0805V89.808H86.5365V88.248ZM128.973 107.856C122.829 101.84 118.029 94.192 114.573 84.912C111.181 75.632 109.485 65.616 109.485 54.864C109.485 43.856 111.277 33.584 114.861 24.048C118.509 14.448 123.693 6.544 130.413 0.335999H139.533V1.19999C132.365 7.91999 126.957 16.016 123.309 25.488C119.725 34.896 117.933 44.688 117.933 54.864C117.933 64.784 119.629 74.256 123.021 83.28C126.477 92.304 131.501 100.208 138.093 106.992V107.856H128.973ZM171.319 90.672C166.903 90.672 162.935 89.904 159.415 88.368C155.959 86.768 153.239 84.592 151.255 81.84C149.271 79.024 148.247 75.792 148.183 72.144H157.495C157.815 75.28 159.095 77.936 161.335 80.112C163.639 82.224 166.967 83.28 171.319 83.28C175.479 83.28 178.743 82.256 181.111 80.208C183.543 78.096 184.759 75.408 184.759 72.144C184.759 69.584 184.055 67.504 182.647 65.904C181.239 64.304 179.479 63.088 177.367 62.256C175.255 61.424 172.407 60.528 168.823 59.568C164.407 58.416 160.855 57.264 158.167 56.112C155.543 54.96 153.271 53.168 151.351 50.736C149.495 48.24 148.567 44.912 148.567 40.752C148.567 37.104 149.495 33.872 151.351 31.056C153.207 28.24 155.799 26.064 159.127 24.528C162.519 22.992 166.391 22.224 170.743 22.224C177.015 22.224 182.135 23.792 186.103 26.928C190.135 30.064 192.407 34.224 192.919 39.408H183.319C182.999 36.848 181.655 34.608 179.287 32.688C176.919 30.704 173.783 29.712 169.879 29.712C166.231 29.712 163.255 30.672 160.951 32.592C158.647 34.448 157.495 37.072 157.495 40.464C157.495 42.896 158.167 44.88 159.511 46.416C160.919 47.952 162.615 49.136 164.599 49.968C166.647 50.736 169.495 51.632 173.143 52.656C177.559 53.872 181.111 55.088 183.799 56.304C186.487 57.456 188.791 59.28 190.711 61.776C192.631 64.208 193.591 67.536 193.591 71.76C193.591 75.024 192.727 78.096 190.999 80.976C189.271 83.856 186.711 86.192 183.319 87.984C179.927 89.776 175.927 90.672 171.319 90.672ZM236.783 90.672C230.575 90.672 224.911 89.232 219.791 86.352C214.671 83.408 210.607 79.344 207.599 74.16C204.655 68.912 203.183 63.024 203.183 56.496C203.183 49.968 204.655 44.112 207.599 38.928C210.607 33.68 214.671 29.616 219.791 26.736C224.911 23.792 230.575 22.32 236.783 22.32C243.055 22.32 248.751 23.792 253.871 26.736C258.991 29.616 263.023 33.648 265.967 38.832C268.911 44.016 270.383 49.904 270.383 56.496C270.383 63.088 268.911 68.976 265.967 74.16C263.023 79.344 258.991 83.408 253.871 86.352C248.751 89.232 243.055 90.672 236.783 90.672ZM236.783 83.088C241.455 83.088 245.647 82 249.359 79.824C253.135 77.648 256.079 74.544 258.191 70.512C260.367 66.48 261.455 61.808 261.455 56.496C261.455 51.12 260.367 46.448 258.191 42.48C256.079 38.448 253.167 35.344 249.455 33.168C245.743 30.992 241.519 29.904 236.783 29.904C232.047 29.904 227.823 30.992 224.111 33.168C220.399 35.344 217.455 38.448 215.279 42.48C213.167 46.448 212.111 51.12 212.111 56.496C212.111 61.808 213.167 66.48 215.279 70.512C217.455 74.544 220.399 77.648 224.111 79.824C227.887 82 232.111 83.088 236.783 83.088ZM275.483 86.136V84.48L283.907 72.816H286.523V84.24H288.923V86.136H286.523V90H284.363V86.136H275.483ZM284.459 75.096L278.003 84.24H284.459V75.096ZM294.225 107.856V106.992C300.817 100.208 305.809 92.304 309.201 83.28C312.657 74.256 314.385 64.784 314.385 54.864C314.385 44.688 312.561 34.896 308.913 25.488C305.329 16.016 299.953 7.91999 292.785 1.19999V0.335999H301.905C308.625 6.544 313.777 14.448 317.361 24.048C321.009 33.584 322.833 43.856 322.833 54.864C322.833 65.616 321.105 75.632 317.649 84.912C314.257 94.192 309.489 101.84 303.345 107.856H294.225ZM334.651 77.016C334.763 75.544 335.331 74.392 336.355 73.56C337.379 72.728 338.707 72.312 340.339 72.312C341.427 72.312 342.363 72.512 343.147 72.912C343.947 73.296 344.547 73.824 344.947 74.496C345.363 75.168 345.571 75.928 345.571 76.776C345.571 77.768 345.283 78.624 344.707 79.344C344.147 80.064 343.411 80.528 342.499 80.736V80.856C343.539 81.112 344.363 81.616 344.971 82.368C345.579 83.12 345.883 84.104 345.883 85.32C345.883 86.232 345.675 87.056 345.259 87.792C344.843 88.512 344.219 89.08 343.387 89.496C342.555 89.912 341.555 90.12 340.387 90.12C338.691 90.12 337.299 89.68 336.211 88.8C335.123 87.904 334.515 86.64 334.387 85.008H336.499C336.611 85.968 337.003 86.752 337.675 87.36C338.347 87.968 339.243 88.272 340.363 88.272C341.483 88.272 342.331 87.984 342.907 87.408C343.499 86.816 343.795 86.056 343.795 85.128C343.795 83.928 343.395 83.064 342.595 82.536C341.795 82.008 340.587 81.744 338.971 81.744H338.419V79.92H338.995C340.467 79.904 341.579 79.664 342.331 79.2C343.083 78.72 343.459 77.984 343.459 76.992C343.459 76.144 343.179 75.464 342.619 74.952C342.075 74.44 341.291 74.184 340.267 74.184C339.275 74.184 338.475 74.44 337.867 74.952C337.259 75.464 336.899 76.152 336.787 77.016H334.651Z" fill="white"/>
</svg>
