<svg width="69" height="32" viewBox="0 0 69 32" fill="none" xmlns="http://www.w3.org/2000/svg">
<path d="M39.988 28.4018C38.6525 29.1968 38.6009 30.5177 39.8727 31.3522C41.1445 32.187 43.2577 32.2192 44.5927 31.4242L39.988 28.4018ZM67.9637 17.5112C69.2992 16.7162 69.3508 15.3953 68.079 14.5608C66.8071 13.726 64.694 13.6938 63.3589 14.4887L67.9637 17.5112ZM63.3589 17.5112C64.694 18.3062 66.8071 18.2739 68.079 17.4391C69.3508 16.6046 69.2992 15.2837 67.9637 14.4887L63.3589 17.5112ZM44.5927 0.575726C43.2577 -0.21918 41.1445 -0.186958 39.8727 0.647684C38.6009 1.48233 38.6525 2.80331 39.988 3.59819L44.5927 0.575726ZM65.6613 18.0869C67.5052 18.0869 69 17.1525 69 16C69 14.8474 67.5052 13.913 65.6613 13.913V18.0869ZM3.33877 13.913C1.49487 13.913 6.10352e-05 14.8474 6.10352e-05 16C6.10352e-05 17.1525 1.49487 18.0869 3.33877 18.0869V13.913ZM44.5927 31.4242L67.9637 17.5112L63.3589 14.4887L39.988 28.4018L44.5927 31.4242ZM67.9637 14.4887L44.5927 0.575726L39.988 3.59819L63.3589 17.5112L67.9637 14.4887ZM65.6613 13.913H3.33877V18.0869H65.6613V13.913Z" fill="white"/>
</svg>
