<svg width="81" height="58" viewBox="0 0 81 58" fill="none" xmlns="http://www.w3.org/2000/svg">
<path d="M32.3889 41.7342V48.4443C32.3889 51.5127 36.0203 54 40.5001 54C44.9798 54 48.6112 51.5127 48.6112 48.4443V41.7342M40.5001 4V6.77784M66.3108 11.3217L63.4431 13.2859M14.6894 11.3217L17.5572 13.2859M8.05562 29.0006H4.00006M77.0001 29.0006H72.9445M60.7778 29.0006C60.7778 36.6713 51.6991 42.8898 40.5001 42.8898C29.301 42.8898 20.2223 36.6713 20.2223 29.0006C20.2223 21.3298 29.301 15.1114 40.5001 15.1114C51.6991 15.1114 60.7778 21.3298 60.7778 29.0006Z" stroke="white" stroke-width="8" stroke-linecap="round" stroke-linejoin="round"/>
</svg>
