<svg width="260" height="69" viewBox="0 0 260 69" fill="none" xmlns="http://www.w3.org/2000/svg">
<path d="M53 68H44.264L9.128 14.72V68H0.392001V0.991999H9.128L44.264 54.176V0.991999H53V68ZM64.628 41.504C64.628 36.128 65.716 31.424 67.892 27.392C70.068 23.296 73.044 20.128 76.82 17.888C80.66 15.648 84.916 14.528 89.588 14.528C94.196 14.528 98.196 15.52 101.588 17.504C104.98 19.488 107.508 21.984 109.172 24.992V15.392H118.004V68H109.172V58.208C107.444 61.28 104.852 63.84 101.396 65.888C98.004 67.872 94.036 68.864 89.492 68.864C84.82 68.864 80.596 67.712 76.82 65.408C73.044 63.104 70.068 59.872 67.892 55.712C65.716 51.552 64.628 46.816 64.628 41.504ZM109.172 41.6C109.172 37.632 108.372 34.176 106.772 31.232C105.172 28.288 102.996 26.048 100.244 24.512C97.556 22.912 94.58 22.112 91.316 22.112C88.052 22.112 85.076 22.88 82.388 24.416C79.7 25.952 77.556 28.192 75.956 31.136C74.356 34.08 73.556 37.536 73.556 41.504C73.556 45.536 74.356 49.056 75.956 52.064C77.556 55.008 79.7 57.28 82.388 58.88C85.076 60.416 88.052 61.184 91.316 61.184C94.58 61.184 97.556 60.416 100.244 58.88C102.996 57.28 105.172 55.008 106.772 52.064C108.372 49.056 109.172 45.568 109.172 41.6ZM163.103 68.672C156.895 68.672 151.231 67.232 146.111 64.352C140.991 61.408 136.927 57.344 133.919 52.16C130.975 46.912 129.503 41.024 129.503 34.496C129.503 27.968 130.975 22.112 133.919 16.928C136.927 11.68 140.991 7.616 146.111 4.736C151.231 1.792 156.895 0.319996 163.103 0.319996C169.375 0.319996 175.071 1.792 180.191 4.736C185.311 7.616 189.343 11.648 192.287 16.832C195.231 22.016 196.703 27.904 196.703 34.496C196.703 41.088 195.231 46.976 192.287 52.16C189.343 57.344 185.311 61.408 180.191 64.352C175.071 67.232 169.375 68.672 163.103 68.672ZM163.103 61.088C167.775 61.088 171.967 60 175.679 57.824C179.455 55.648 182.399 52.544 184.511 48.512C186.687 44.48 187.775 39.808 187.775 34.496C187.775 29.12 186.687 24.448 184.511 20.48C182.399 16.448 179.487 13.344 175.775 11.168C172.063 8.992 167.839 7.904 163.103 7.904C158.367 7.904 154.143 8.992 150.431 11.168C146.719 13.344 143.775 16.448 141.599 20.48C139.487 24.448 138.431 29.12 138.431 34.496C138.431 39.808 139.487 44.48 141.599 48.512C143.775 52.544 146.719 55.648 150.431 57.824C154.207 60 158.431 61.088 163.103 61.088ZM259.788 1.088V68H251.052V37.664H216.972V68H208.236V1.088H216.972V30.464H251.052V1.088H259.788Z" fill="white"/>
</svg>
