<svg width="73" height="50" viewBox="0 0 73 50" fill="none" xmlns="http://www.w3.org/2000/svg">
<path d="M36.5001 9.40476C48.6667 17.0833 60.8334 26.875 60.8334 32.1429C60.8334 35.3002 58.2697 38.3282 53.7063 40.5608C49.1429 42.7934 42.9537 44.0476 36.5001 44.0476C30.0465 44.0476 23.8572 42.7934 19.2938 40.5608C14.7304 38.3282 12.1667 35.3002 12.1667 32.1429C12.1667 26.875 24.3334 17.0833 36.5001 9.40476ZM36.5001 0C36.5001 0 6.10352e-05 20.2381 6.10352e-05 32.1429C6.10352e-05 36.8789 3.84559 41.4209 10.6907 44.7698C17.5357 48.1186 26.8197 50 36.5001 50C46.1805 50 55.4644 48.1186 62.3095 44.7698C69.1545 41.4209 73.0001 36.8789 73.0001 32.1429C73.0001 20.2381 36.5001 0 36.5001 0Z" fill="white"/>
</svg>
