<svg width="212" height="73" viewBox="0 0 212 73" fill="none" xmlns="http://www.w3.org/2000/svg">
<path d="M38.216 5.088V12.192H9.128V34.752H32.744V41.856H9.128V72H0.392001V5.088H38.216ZM96.767 43.68C96.767 45.344 96.671 47.104 96.479 48.96H54.431C54.751 54.144 56.511 58.208 59.711 61.152C62.975 64.032 66.911 65.472 71.519 65.472C75.295 65.472 78.431 64.608 80.927 62.88C83.487 61.088 85.279 58.72 86.303 55.776H95.711C94.303 60.832 91.487 64.96 87.263 68.16C83.039 71.296 77.791 72.864 71.519 72.864C66.527 72.864 62.047 71.744 58.079 69.504C54.175 67.264 51.103 64.096 48.863 60C46.623 55.84 45.503 51.04 45.503 45.6C45.503 40.16 46.591 35.392 48.767 31.296C50.943 27.2 53.983 24.064 57.887 21.888C61.855 19.648 66.399 18.528 71.519 18.528C76.511 18.528 80.927 19.616 84.767 21.792C88.607 23.968 91.551 26.976 93.599 30.816C95.711 34.592 96.767 38.88 96.767 43.68ZM87.743 41.856C87.743 38.528 87.007 35.68 85.535 33.312C84.063 30.88 82.047 29.056 79.487 27.84C76.991 26.56 74.207 25.92 71.135 25.92C66.719 25.92 62.943 27.328 59.807 30.144C56.735 32.96 54.975 36.864 54.527 41.856H87.743ZM105.034 38.496C105.034 31.968 106.506 26.112 109.45 20.928C112.394 15.68 116.394 11.584 121.45 8.64C126.57 5.696 132.234 4.224 138.442 4.224C145.738 4.224 152.106 5.984 157.546 9.504C162.986 13.024 166.954 18.016 169.45 24.48H158.986C157.13 20.448 154.442 17.344 150.922 15.168C147.466 12.992 143.306 11.904 138.442 11.904C133.77 11.904 129.578 12.992 125.866 15.168C122.154 17.344 119.242 20.448 117.13 24.48C115.018 28.448 113.962 33.12 113.962 38.496C113.962 43.808 115.018 48.48 117.13 52.512C119.242 56.48 122.154 59.552 125.866 61.728C129.578 63.904 133.77 64.992 138.442 64.992C143.306 64.992 147.466 63.936 150.922 61.824C154.442 59.648 157.13 56.544 158.986 52.512H169.45C166.954 58.912 162.986 63.872 157.546 67.392C152.106 70.848 145.738 72.576 138.442 72.576C132.234 72.576 126.57 71.136 121.45 68.256C116.394 65.312 112.394 61.248 109.45 56.064C106.506 50.88 105.034 45.024 105.034 38.496ZM191.191 0.959999V72H182.455V0.959999H191.191ZM200.128 59.016C200.24 57.544 200.808 56.392 201.832 55.56C202.856 54.728 204.184 54.312 205.816 54.312C206.904 54.312 207.84 54.512 208.624 54.912C209.424 55.296 210.024 55.824 210.424 56.496C210.84 57.168 211.048 57.928 211.048 58.776C211.048 59.768 210.76 60.624 210.184 61.344C209.624 62.064 208.888 62.528 207.976 62.736V62.856C209.016 63.112 209.84 63.616 210.448 64.368C211.056 65.12 211.359 66.104 211.359 67.32C211.359 68.232 211.152 69.056 210.736 69.792C210.32 70.512 209.696 71.08 208.864 71.496C208.032 71.912 207.032 72.12 205.864 72.12C204.168 72.12 202.776 71.68 201.688 70.8C200.6 69.904 199.992 68.64 199.864 67.008H201.976C202.088 67.968 202.48 68.752 203.152 69.36C203.824 69.968 204.72 70.272 205.84 70.272C206.96 70.272 207.808 69.984 208.384 69.408C208.976 68.816 209.272 68.056 209.272 67.128C209.272 65.928 208.872 65.064 208.072 64.536C207.272 64.008 206.064 63.744 204.448 63.744H203.896V61.92H204.472C205.944 61.904 207.056 61.664 207.808 61.2C208.56 60.72 208.936 59.984 208.936 58.992C208.936 58.144 208.656 57.464 208.096 56.952C207.552 56.44 206.768 56.184 205.743 56.184C204.752 56.184 203.952 56.44 203.344 56.952C202.736 57.464 202.376 58.152 202.264 59.016H200.128Z" fill="white"/>
</svg>
