<svg width="114" height="83" viewBox="0 0 114 83" fill="none" xmlns="http://www.w3.org/2000/svg">
<path d="M94.8572 4H19.1429M79.7143 4V31.8068C97.62 36.4879 110 46.5317 110 58.1667M110 58.1667C110 66.3279 103.909 73.7062 94.0925 79H19.9078C10.091 73.7062 4.00006 66.3279 4.00006 58.1667M110 58.1667H93.3641C84.4639 58.1667 75.7628 56.7171 68.3572 54C60.9516 51.2829 52.2505 49.8333 43.3503 49.8333H41.8572C40.4824 49.8333 39.795 49.8333 39.1213 49.8442C31.0725 49.9758 23.2318 51.2821 16.4023 53.63C15.8306 53.8262 15.2585 54.0362 14.1147 54.4558L4.00006 58.1667M4.00006 58.1667C4.00006 46.5317 16.3797 36.4879 34.2858 31.8068V4" stroke="white" stroke-width="8" stroke-linecap="round" stroke-linejoin="round"/>
</svg>
