<svg width="30" height="24" viewBox="0 0 30 24" fill="none" xmlns="http://www.w3.org/2000/svg">
<path d="M3 24C2.175 24 1.4685 23.706 0.880502 23.118C0.292502 22.53 -0.000997453 21.824 2.54669e-06 21V3C2.54669e-06 2.175 0.294003 1.4685 0.882003 0.880502C1.47 0.292502 2.176 -0.000997453 3 2.54669e-06H27C27.825 2.54669e-06 28.5315 0.294002 29.1195 0.882002C29.7075 1.47 30.001 2.176 30 3V21C30 21.825 29.706 22.5315 29.118 23.1195C28.53 23.7075 27.824 24.001 27 24H3ZM15 13.5L3 6V21H27V6L15 13.5ZM15 10.5L27 3H3L15 10.5ZM3 6V3V21V6Z" fill="#181818"/>
</svg>
