<svg width="36" height="36" viewBox="0 0 36 36" fill="none" xmlns="http://www.w3.org/2000/svg">
<path d="M34.2669 24.2027L25.787 20.4028L25.7636 20.392C25.3234 20.2037 24.8431 20.1282 24.3664 20.1722C23.8896 20.2162 23.4313 20.3784 23.033 20.644C22.9861 20.675 22.941 20.7087 22.898 20.7448L18.5167 24.4799C15.7411 23.1317 12.8755 20.2876 11.5273 17.548L15.2677 13.1002C15.3037 13.0552 15.3379 13.0102 15.3703 12.9616C15.6303 12.5643 15.788 12.1089 15.8295 11.636C15.8709 11.163 15.7948 10.6872 15.6079 10.2507V10.2291L11.7973 1.73485C11.5502 1.16472 11.1254 0.689789 10.5862 0.380949C10.0471 0.0721079 9.42246 -0.0540751 8.80568 0.021236C6.36661 0.342191 4.12777 1.54003 2.50731 3.39104C0.886859 5.24205 -0.00439371 7.61963 1.62877e-05 10.0797C1.62877e-05 24.3719 11.6281 36 25.9202 36C28.3803 36.0044 30.7579 35.1131 32.6089 33.4927C34.4599 31.8722 35.6577 29.6334 35.9787 27.1943C36.0541 26.5777 35.9282 25.9533 35.6197 25.4141C35.3112 24.875 34.8366 24.45 34.2669 24.2027ZM25.9202 33.12C19.8116 33.1133 13.9551 30.6837 9.63571 26.3643C5.31629 22.0448 2.88671 16.1883 2.88004 10.0797C2.87326 8.322 3.50653 6.62189 4.66157 5.29692C5.81662 3.97195 7.41445 3.11271 9.15668 2.87966C9.15597 2.88685 9.15597 2.89408 9.15668 2.90126L12.9367 11.3613L9.21608 15.8146C9.17832 15.858 9.14401 15.9044 9.11348 15.9532C8.84261 16.3688 8.6837 16.8474 8.65216 17.3426C8.62063 17.8377 8.71753 18.3326 8.93348 18.7792C10.5643 22.1147 13.9249 25.4501 17.2963 27.0791C17.7463 27.293 18.244 27.3866 18.7409 27.3506C19.2378 27.3146 19.7169 27.1504 20.1314 26.8739C20.1776 26.8428 20.222 26.8091 20.2646 26.7731L24.6404 23.0399L33.1005 26.8289H33.1203C32.8901 28.5736 32.0321 30.1746 30.7069 31.3326C29.3817 32.4905 27.68 33.1259 25.9202 33.12Z" fill="white"/>
</svg>
