<svg width="34" height="34" viewBox="0 0 34 34" fill="none" xmlns="http://www.w3.org/2000/svg">
<path d="M17 14V32M17 14C17 9.79961 17 7.69942 16.2733 6.09508C15.6342 4.68386 14.6143 3.53651 13.3599 2.81744C11.9338 2 10.067 2 6.33333 2H4.66667C3.73325 2 3.26653 2 2.91002 2.20436C2.59642 2.38413 2.34145 2.67097 2.18165 3.02377C2 3.42485 2 3.94991 2 5V25.25C2 26.3002 2 26.8252 2.18165 27.2263C2.34145 27.5791 2.59642 27.8658 2.91002 28.0456C3.26653 28.25 3.73325 28.25 4.66667 28.25H9.5778C10.4781 28.25 10.9283 28.25 11.3636 28.3374C11.7499 28.4148 12.1268 28.5431 12.4865 28.7199C12.8917 28.9188 13.2663 29.1997 14.0153 29.7616L17 32M17 14C17 9.79961 17 7.69942 17.7267 6.09508C18.3658 4.68386 19.3857 3.53651 20.64 2.81744C22.0662 2 23.933 2 27.6667 2H29.3333C30.2668 2 30.7335 2 31.09 2.20436C31.4037 2.38413 31.6585 2.67097 31.8183 3.02377C32 3.42485 32 3.94991 32 5V25.25C32 26.3002 32 26.8252 31.8183 27.2263C31.6585 27.5791 31.4037 27.8658 31.09 28.0456C30.7335 28.25 30.2668 28.25 29.3333 28.25H24.4222C23.5218 28.25 23.0717 28.25 22.6365 28.3374C22.25 28.4148 21.8732 28.5431 21.5135 28.7199C21.1083 28.9188 20.7337 29.1997 19.9847 29.7616L17 32" stroke="#545454" stroke-width="4" stroke-linecap="round" stroke-linejoin="round"/>
</svg>
