<svg width="355" height="69" viewBox="0 0 355 69" fill="none" xmlns="http://www.w3.org/2000/svg">
<path d="M53 68H44.264L9.128 14.72V68H0.392001V0.991999H9.128L44.264 54.176V0.991999H53V68ZM64.628 41.504C64.628 36.128 65.716 31.424 67.892 27.392C70.068 23.296 73.044 20.128 76.82 17.888C80.66 15.648 84.916 14.528 89.588 14.528C94.196 14.528 98.196 15.52 101.588 17.504C104.98 19.488 107.508 21.984 109.172 24.992V15.392H118.004V68H109.172V58.208C107.444 61.28 104.852 63.84 101.396 65.888C98.004 67.872 94.036 68.864 89.492 68.864C84.82 68.864 80.596 67.712 76.82 65.408C73.044 63.104 70.068 59.872 67.892 55.712C65.716 51.552 64.628 46.816 64.628 41.504ZM109.172 41.6C109.172 37.632 108.372 34.176 106.772 31.232C105.172 28.288 102.996 26.048 100.244 24.512C97.556 22.912 94.58 22.112 91.316 22.112C88.052 22.112 85.076 22.88 82.388 24.416C79.7 25.952 77.556 28.192 75.956 31.136C74.356 34.08 73.556 37.536 73.556 41.504C73.556 45.536 74.356 49.056 75.956 52.064C77.556 55.008 79.7 57.28 82.388 58.88C85.076 60.416 88.052 61.184 91.316 61.184C94.58 61.184 97.556 60.416 100.244 58.88C102.996 57.28 105.172 55.008 106.772 52.064C108.372 49.056 109.172 45.568 109.172 41.6ZM184.319 1.088V68H175.583V37.664H141.503V68H132.767V1.088H141.503V30.464H175.583V1.088H184.319ZM195.972 34.496C195.972 27.968 197.444 22.112 200.388 16.928C203.332 11.68 207.332 7.584 212.388 4.64C217.508 1.696 223.172 0.223997 229.38 0.223997C236.676 0.223997 243.044 1.984 248.484 5.504C253.924 9.024 257.892 14.016 260.388 20.48H249.924C248.068 16.448 245.38 13.344 241.86 11.168C238.404 8.992 234.244 7.904 229.38 7.904C224.708 7.904 220.516 8.992 216.804 11.168C213.092 13.344 210.18 16.448 208.068 20.48C205.956 24.448 204.9 29.12 204.9 34.496C204.9 39.808 205.956 44.48 208.068 48.512C210.18 52.48 213.092 55.552 216.804 57.728C220.516 59.904 224.708 60.992 229.38 60.992C234.244 60.992 238.404 59.936 241.86 57.824C245.38 55.648 248.068 52.544 249.924 48.512H260.388C257.892 54.912 253.924 59.872 248.484 63.392C243.044 66.848 236.676 68.576 229.38 68.576C223.172 68.576 217.508 67.136 212.388 64.256C207.332 61.312 203.332 57.248 200.388 52.064C197.444 46.88 195.972 41.024 195.972 34.496ZM303.728 68.672C297.52 68.672 291.856 67.232 286.736 64.352C281.616 61.408 277.552 57.344 274.544 52.16C271.6 46.912 270.128 41.024 270.128 34.496C270.128 27.968 271.6 22.112 274.544 16.928C277.552 11.68 281.616 7.616 286.736 4.736C291.856 1.792 297.52 0.319996 303.728 0.319996C310 0.319996 315.696 1.792 320.816 4.736C325.936 7.616 329.968 11.648 332.912 16.832C335.856 22.016 337.328 27.904 337.328 34.496C337.328 41.088 335.856 46.976 332.912 52.16C329.968 57.344 325.936 61.408 320.816 64.352C315.696 67.232 310 68.672 303.728 68.672ZM303.728 61.088C308.4 61.088 312.592 60 316.304 57.824C320.08 55.648 323.024 52.544 325.136 48.512C327.312 44.48 328.4 39.808 328.4 34.496C328.4 29.12 327.312 24.448 325.136 20.48C323.024 16.448 320.112 13.344 316.4 11.168C312.688 8.992 308.464 7.904 303.728 7.904C298.992 7.904 294.768 8.992 291.056 11.168C287.344 13.344 284.4 16.448 282.224 20.48C280.112 24.448 279.056 29.12 279.056 34.496C279.056 39.808 280.112 44.48 282.224 48.512C284.4 52.544 287.344 55.648 291.056 57.824C294.832 60 299.056 61.088 303.728 61.088ZM342.909 55.016C343.021 53.544 343.589 52.392 344.613 51.56C345.637 50.728 346.965 50.312 348.597 50.312C349.685 50.312 350.621 50.512 351.405 50.912C352.205 51.296 352.805 51.824 353.205 52.496C353.621 53.168 353.829 53.928 353.829 54.776C353.829 55.768 353.541 56.624 352.965 57.344C352.405 58.064 351.669 58.528 350.757 58.736V58.856C351.797 59.112 352.621 59.616 353.229 60.368C353.837 61.12 354.141 62.104 354.141 63.32C354.141 64.232 353.933 65.056 353.517 65.792C353.101 66.512 352.477 67.08 351.645 67.496C350.813 67.912 349.813 68.12 348.645 68.12C346.949 68.12 345.557 67.68 344.469 66.8C343.381 65.904 342.773 64.64 342.645 63.008H344.757C344.869 63.968 345.261 64.752 345.933 65.36C346.605 65.968 347.501 66.272 348.621 66.272C349.741 66.272 350.589 65.984 351.165 65.408C351.757 64.816 352.053 64.056 352.053 63.128C352.053 61.928 351.653 61.064 350.853 60.536C350.053 60.008 348.845 59.744 347.229 59.744H346.677V57.92H347.253C348.725 57.904 349.837 57.664 350.589 57.2C351.341 56.72 351.717 55.984 351.717 54.992C351.717 54.144 351.437 53.464 350.877 52.952C350.333 52.44 349.549 52.184 348.525 52.184C347.533 52.184 346.733 52.44 346.125 52.952C345.517 53.464 345.157 54.152 345.045 55.016H342.909Z" fill="white"/>
</svg>
