<svg width="295" height="73" viewBox="0 0 295 73" fill="none" xmlns="http://www.w3.org/2000/svg">
<path d="M53 72H44.264L9.128 18.72V72H0.392001V4.992H9.128L44.264 58.176V4.992H53V72ZM64.628 45.504C64.628 40.128 65.716 35.424 67.892 31.392C70.068 27.296 73.044 24.128 76.82 21.888C80.66 19.648 84.916 18.528 89.588 18.528C94.196 18.528 98.196 19.52 101.588 21.504C104.98 23.488 107.508 25.984 109.172 28.992V19.392H118.004V72H109.172V62.208C107.444 65.28 104.852 67.84 101.396 69.888C98.004 71.872 94.036 72.864 89.492 72.864C84.82 72.864 80.596 71.712 76.82 69.408C73.044 67.104 70.068 63.872 67.892 59.712C65.716 55.552 64.628 50.816 64.628 45.504ZM109.172 45.6C109.172 41.632 108.372 38.176 106.772 35.232C105.172 32.288 102.996 30.048 100.244 28.512C97.556 26.912 94.58 26.112 91.316 26.112C88.052 26.112 85.076 26.88 82.388 28.416C79.7 29.952 77.556 32.192 75.956 35.136C74.356 38.08 73.556 41.536 73.556 45.504C73.556 49.536 74.356 53.056 75.956 56.064C77.556 59.008 79.7 61.28 82.388 62.88C85.076 64.416 88.052 65.184 91.316 65.184C94.58 65.184 97.556 64.416 100.244 62.88C102.996 61.28 105.172 59.008 106.772 56.064C108.372 53.056 109.172 49.568 109.172 45.6ZM129.503 38.496C129.503 31.968 130.975 26.112 133.919 20.928C136.863 15.68 140.863 11.584 145.919 8.64C151.039 5.696 156.703 4.224 162.911 4.224C170.207 4.224 176.575 5.984 182.015 9.504C187.455 13.024 191.423 18.016 193.919 24.48H183.455C181.599 20.448 178.911 17.344 175.391 15.168C171.935 12.992 167.775 11.904 162.911 11.904C158.239 11.904 154.047 12.992 150.335 15.168C146.623 17.344 143.711 20.448 141.599 24.48C139.487 28.448 138.431 33.12 138.431 38.496C138.431 43.808 139.487 48.48 141.599 52.512C143.711 56.48 146.623 59.552 150.335 61.728C154.047 63.904 158.239 64.992 162.911 64.992C167.775 64.992 171.935 63.936 175.391 61.824C178.911 59.648 181.599 56.544 183.455 52.512H193.919C191.423 58.912 187.455 63.872 182.015 67.392C176.575 70.848 170.207 72.576 162.911 72.576C156.703 72.576 151.039 71.136 145.919 68.256C140.863 65.312 136.863 61.248 133.919 56.064C130.975 50.88 129.503 45.024 129.503 38.496ZM215.659 0.959999V72H206.923V0.959999H215.659ZM260.884 72.672C254.676 72.672 249.012 71.232 243.892 68.352C238.772 65.408 234.708 61.344 231.7 56.16C228.756 50.912 227.284 45.024 227.284 38.496C227.284 31.968 228.756 26.112 231.7 20.928C234.708 15.68 238.772 11.616 243.892 8.736C249.012 5.792 254.676 4.32 260.884 4.32C267.156 4.32 272.852 5.792 277.972 8.736C283.092 11.616 287.124 15.648 290.068 20.832C293.012 26.016 294.484 31.904 294.484 38.496C294.484 45.088 293.012 50.976 290.068 56.16C287.124 61.344 283.092 65.408 277.972 68.352C272.852 71.232 267.156 72.672 260.884 72.672ZM260.884 65.088C265.556 65.088 269.748 64 273.46 61.824C277.236 59.648 280.18 56.544 282.292 52.512C284.468 48.48 285.556 43.808 285.556 38.496C285.556 33.12 284.468 28.448 282.292 24.48C280.18 20.448 277.268 17.344 273.556 15.168C269.844 12.992 265.62 11.904 260.884 11.904C256.148 11.904 251.924 12.992 248.212 15.168C244.5 17.344 241.556 20.448 239.38 24.48C237.268 28.448 236.212 33.12 236.212 38.496C236.212 43.808 237.268 48.48 239.38 52.512C241.556 56.544 244.5 59.648 248.212 61.824C251.988 64 256.212 65.088 260.884 65.088Z" fill="white"/>
</svg>
